<?xml version="1.0" encoding="utf-8"?>
<!-- Generator: Adobe Illustrator 24.0.2, SVG Export Plug-In . SVG Version: 6.00 Build 0)  -->
<svg version="1.1" id="图层_1" xmlns="http://www.w3.org/2000/svg" xmlns:xlink="http://www.w3.org/1999/xlink" x="0px" y="0px"
	 viewBox="0 0 121.23 115.75" style="enable-background:new 0 0 121.23 115.75;" xml:space="preserve">
<style type="text/css">
	.st0{clip-path:url(#SVGID_2_);fill:none;stroke:#EB7369;stroke-width:1.07;stroke-linejoin:round;stroke-miterlimit:10;}
	.st1{clip-path:url(#SVGID_2_);fill:none;stroke:#2AAD3E;stroke-width:1.07;stroke-linejoin:round;stroke-miterlimit:10;}
	.st2{clip-path:url(#SVGID_2_);fill:none;stroke:#6692CC;stroke-width:1.07;stroke-linejoin:round;stroke-miterlimit:10;}
	
		.st3{clip-path:url(#SVGID_2_);fill:none;stroke:#323333;stroke-width:1.07;stroke-linecap:round;stroke-linejoin:round;stroke-miterlimit:10;}
	.st4{fill:#4D4D4D;}
	.st5{font-family:'ArialMT';}
	.st6{font-size:6px;}
	.st7{fill:none;stroke:#323333;stroke-width:1.07;stroke-linejoin:round;stroke-miterlimit:10;}
	.st8{fill:#040000;}
	.st9{font-size:7.35px;}
	.st10{fill:none;stroke:#EB7369;stroke-width:1.07;stroke-linejoin:round;stroke-miterlimit:10;}
	.st11{fill:none;stroke:#2AAD3E;stroke-width:1.07;stroke-linejoin:round;stroke-miterlimit:10;}
	.st12{fill:none;stroke:#6692CC;stroke-width:1.07;stroke-linejoin:round;stroke-miterlimit:10;}
</style>
<g id="F">
	<g>
		<g>
			<defs>
				<rect id="SVGID_1_" x="26.69" y="9.47" width="87.68" height="83.78"/>
			</defs>
			<clipPath id="SVGID_2_">
				<use xlink:href="#SVGID_1_"  style="overflow:visible;"/>
			</clipPath>
			<polyline class="st0" points="30.67,89.44 30.67,89.25 30.67,76.37 31.04,76.37 31.04,65.76 31.4,65.76 31.4,55.34 31.77,55.34 
				31.77,47.57 32.13,47.57 32.13,45.3 32.5,45.3 32.5,38.48 32.87,38.48 32.87,37.72 33.23,37.72 33.23,36.96 33.6,36.96 
				33.6,36.01 34.33,36.01 34.33,35.26 34.69,35.26 34.69,34.87 35.06,34.87 35.06,34.69 35.42,34.69 35.42,32.41 36.16,32.41 
				36.16,29.19 36.52,29.19 36.52,28.81 36.89,28.81 36.89,28.62 37.26,28.62 37.26,27.87 37.62,27.87 37.62,27.68 38.35,27.68 
				38.35,25.97 38.72,25.97 38.72,24.26 39.45,24.26 39.45,23.51 40.18,23.51 40.18,23.32 40.55,23.32 40.55,23.13 42.74,23.13 
				42.74,22.94 43.47,22.94 43.47,22.75 44.2,22.75 44.2,22.56 44.93,22.56 44.93,22.37 46.03,22.37 46.03,22.18 46.39,22.18 
				46.39,21.99 47.13,21.99 47.13,21.8 47.86,21.8 47.86,21.61 48.22,21.61 48.22,21.04 48.59,21.04 48.59,20.86 48.95,20.86 
				48.95,20.48 49.68,20.48 49.68,20.29 50.42,20.29 50.42,20.1 50.78,20.1 50.78,19.91 52.25,19.91 52.25,19.72 52.98,19.72 
				52.98,19.15 57.73,19.15 57.73,18.96 58.1,18.96 58.1,18.77 58.83,18.77 58.83,18.58 59.56,18.58 59.56,18.01 60.65,18.01 
				60.65,17.82 61.02,17.82 61.02,17.63 61.75,17.63 61.75,17.44 62.48,17.44 62.48,16.88 63.58,16.88 63.58,16.69 67.97,16.69 
				67.97,16.5 68.7,16.5 68.7,16.31 69.8,16.31 69.8,16.12 70.89,16.12 70.89,15.93 73.82,15.93 73.82,15.55 76.01,15.55 
				76.01,15.36 77.11,15.36 77.11,15.17 77.84,15.17 77.84,14.98 79.3,14.98 79.3,14.79 79.67,14.79 79.67,14.6 80.77,14.6 
				80.77,14.41 83.69,14.41 83.69,14.22 85.52,14.22 85.52,14.04 85.88,14.04 85.88,13.84 88.81,13.84 88.81,13.65 94.3,13.65 
				94.3,13.47 97.95,13.47 97.95,13.28 110.38,13.28 			"/>
			<polyline class="st1" points="30.67,89.44 30.67,89.2 30.67,86.54 30.86,86.54 30.86,75.18 31.06,75.18 31.06,67.44 31.25,67.44 
				31.25,57.77 31.44,57.77 31.44,41.32 31.63,41.32 31.63,39.63 31.82,39.63 31.82,38.18 32.21,38.18 32.21,37.21 32.4,37.21 
				32.4,36.73 32.79,36.73 32.79,36.25 32.98,36.25 32.98,35.52 33.36,35.52 33.36,35.28 33.55,35.28 33.55,35.04 33.75,35.04 
				33.75,34.55 34.13,34.55 34.13,34.31 35.09,34.31 35.09,33.83 36.05,33.83 36.05,33.59 36.44,33.59 36.44,33.1 37.59,33.1 
				37.59,32.86 40.09,32.86 40.09,32.62 40.85,32.62 40.85,31.89 41.24,31.89 41.24,31.65 42,31.65 42,31.41 43.16,31.41 
				43.16,31.17 43.73,31.17 43.73,30.69 43.93,30.69 43.93,30.2 45.85,30.2 45.85,29.96 46.04,29.96 46.04,29.72 46.42,29.72 
				46.42,29.48 47.19,29.48 47.19,28.99 48.15,28.99 48.15,28.75 48.34,28.75 48.34,28.03 49.11,28.03 49.11,27.78 49.5,27.78 
				49.5,27.3 49.88,27.3 49.88,27.06 50.84,27.06 50.84,26.82 51.8,26.82 51.8,26.33 51.99,26.33 51.99,26.09 53.14,26.09 
				53.14,25.85 53.34,25.85 53.34,25.61 53.72,25.61 53.72,25.37 54.68,25.37 54.68,24.88 55.26,24.88 55.26,24.16 58.52,24.16 
				58.52,23.92 60.83,23.92 60.83,23.67 61.4,23.67 61.4,23.43 61.98,23.43 61.98,22.95 62.17,22.95 62.17,22.71 62.56,22.71 
				62.56,22.47 63.71,22.47 63.71,22.22 64.09,22.22 64.09,21.74 64.29,21.74 64.29,21.5 64.48,21.5 64.48,20.77 65.44,20.77 
				65.44,20.53 65.82,20.53 65.82,20.29 66.2,20.29 66.2,19.32 66.78,19.32 66.78,18.84 67.17,18.84 67.17,18.6 68.13,18.6 
				68.13,18.36 71.01,18.36 71.01,18.11 72.35,18.11 72.35,17.87 72.93,17.87 72.93,17.63 73.7,17.63 73.7,17.14 74.66,17.14 
				74.66,16.9 76.77,16.9 76.77,16.66 77.54,16.66 77.54,16.42 79.27,16.42 79.27,16.18 81.76,16.18 81.76,15.94 82.92,15.94 
				82.92,15.69 83.49,15.69 83.49,15.45 84.26,15.45 84.26,15.21 84.84,15.21 84.84,14.97 85.41,14.97 85.41,14.73 85.8,14.73 
				85.8,14.49 90.02,14.49 90.02,14.24 90.98,14.24 90.98,14 100.2,14 100.2,13.76 106.93,13.76 106.93,13.52 107.89,13.52 
				107.89,13.28 110.38,13.28 			"/>
			<polyline class="st2" points="30.67,89.44 30.67,89.21 30.67,27.54 31.18,27.54 31.18,25.47 31.7,25.47 31.7,24.09 32.2,24.09 
				32.2,23.86 33.23,23.86 33.23,23.17 33.74,23.17 33.74,22.71 35.27,22.71 35.27,22.48 36.29,22.48 36.29,22.25 36.8,22.25 
				36.8,21.33 37.32,21.33 37.32,21.1 37.82,21.1 37.82,20.87 38.34,20.87 38.34,19.95 38.85,19.95 38.85,19.72 39.36,19.72 
				39.36,19.03 40.89,19.03 40.89,18.34 41.4,18.34 41.4,18.11 41.91,18.11 41.91,17.88 42.42,17.88 42.42,17.65 44.47,17.65 
				44.47,17.42 45.49,17.42 45.49,17.19 47.02,17.19 47.02,16.5 48.05,16.5 48.05,16.27 49.07,16.27 49.07,15.81 51.62,15.81 
				51.62,15.58 57.24,15.58 57.24,15.35 60.31,15.35 60.31,14.89 61.33,14.89 61.33,14.66 61.84,14.66 61.84,14.43 63.88,14.43 
				63.88,13.97 71.55,13.97 71.55,13.74 73.59,13.74 73.59,13.51 94.54,13.51 94.54,13.28 110.38,13.28 			"/>
			<rect x="26.69" y="9.47" class="st3" width="87.68" height="83.78"/>
		</g>
		<text transform="matrix(1.0466 0 0 1 11.9462 91.3157)" class="st4 st5 st6">0.00</text>
		<text transform="matrix(1.0466 0 0 1 11.9462 72.2766)" class="st4 st5 st6">0.25</text>
		<text transform="matrix(1.0466 0 0 1 11.9462 53.2337)" class="st4 st5 st6">0.50</text>
		<text transform="matrix(1.0466 0 0 1 11.9462 34.1926)" class="st4 st5 st6">0.75</text>
		<text transform="matrix(1.0466 0 0 1 11.9463 15.1536)" class="st4 st5 st6">1.00</text>
		<line class="st7" x1="25.85" y1="89.44" x2="26.69" y2="89.44"/>
		<line class="st7" x1="25.85" y1="70.4" x2="26.69" y2="70.4"/>
		<line class="st7" x1="25.85" y1="51.36" x2="26.69" y2="51.36"/>
		<line class="st7" x1="25.85" y1="32.32" x2="26.69" y2="32.32"/>
		<line class="st7" x1="25.85" y1="13.28" x2="26.69" y2="13.28"/>
		<line class="st7" x1="30.67" y1="94.05" x2="30.67" y2="93.25"/>
		<line class="st7" x1="50.6" y1="94.05" x2="50.6" y2="93.25"/>
		<line class="st7" x1="70.53" y1="94.05" x2="70.53" y2="93.25"/>
		<line class="st7" x1="90.45" y1="94.05" x2="90.45" y2="93.25"/>
		<line class="st7" x1="110.38" y1="94.05" x2="110.38" y2="93.25"/>
		<text transform="matrix(0.9555 0 0 1 24.3665 100.8473)" class="st4 st5 st6">0.00</text>
		<text transform="matrix(0.9555 0 0 1 44.5149 100.8473)" class="st4 st5 st6">0.25</text>
		<text transform="matrix(0.9555 0 0 1 64.3548 100.8473)" class="st4 st5 st6">0.50</text>
		<text transform="matrix(0.9555 0 0 1 84.1985 100.8473)" class="st4 st5 st6">0.75</text>
		<text transform="matrix(0.9555 0 0 1 105.3665 100.8473)" class="st4 st5 st6">1.00</text>
		<text transform="matrix(1.0466 0 0 1 33.3678 109.8469)" class="st8 st5 st9">False Positive Rate</text>
		<text transform="matrix(0 -0.9555 1 0 11.4597 82.8469)" class="st5 st9">True Positive Rate</text>
		<g>
			<line class="st10" x1="58.66" y1="28.85" x2="62.87" y2="28.85"/>
			<line class="st11" x1="58.66" y1="51.3" x2="62.87" y2="51.3"/>
			<line class="st12" x1="58.66" y1="73.98" x2="62.87" y2="73.98"/>
			<text transform="matrix(1.0466 0 0 1 66.4368 30.4112)"><tspan x="0" y="0" class="st8 st5 st6">LUAD vs NL: </tspan><tspan x="0" y="7" class="st8 st5 st6">mean=0.92; </tspan><tspan x="0" y="14" class="st8 st5 st6">sd=0.009</tspan></text>
			<text transform="matrix(1.0466 0 0 1 66.4368 52.8626)"><tspan x="0" y="0" class="st8 st5 st6">LUAD vs LUSC: </tspan><tspan x="0" y="7" class="st8 st5 st6">mean=0.89; </tspan><tspan x="0" y="14" class="st8 st5 st6">sd=0.01</tspan></text>
			<text transform="matrix(1.0466 0 0 1 66.4241 75.5393)"><tspan x="0" y="0" class="st8 st5 st6">LUSC vs NL: </tspan><tspan x="0" y="7" class="st8 st5 st6">mean=0.97; </tspan><tspan x="0" y="14" class="st8 st5 st6">sd=0.006</tspan></text>
		</g>
	</g>
</g>
</svg>
