<?xml version="1.0" encoding="utf-8"?>
<!-- Generator: Adobe Illustrator 24.0.2, SVG Export Plug-In . SVG Version: 6.00 Build 0)  -->
<svg version="1.1" id="图层_1" xmlns="http://www.w3.org/2000/svg" xmlns:xlink="http://www.w3.org/1999/xlink" x="0px" y="0px"
	 viewBox="0 0 126.03 123.97" style="enable-background:new 0 0 126.03 123.97;" xml:space="preserve">
<style type="text/css">
	.st0{clip-path:url(#SVGID_2_);fill:none;stroke:#E71F19;stroke-width:2.13;stroke-linejoin:round;stroke-miterlimit:10;}
	.st1{clip-path:url(#SVGID_2_);fill:none;stroke:#17499D;stroke-width:2.13;stroke-linejoin:round;stroke-miterlimit:10;}
	.st2{clip-path:url(#SVGID_2_);}
	.st3{fill:#E71F19;}
	.st4{font-family:'ArialMT';}
	.st5{font-size:5.1672px;}
	.st6{fill:#17499D;}
	.st7{fill:#040000;}
	.st8{font-size:8.2692px;}
	
		.st9{clip-path:url(#SVGID_2_);fill:none;stroke:#323333;stroke-width:1.07;stroke-linecap:round;stroke-linejoin:round;stroke-miterlimit:10;}
	.st10{fill:#4D4D4D;}
	.st11{font-size:5.5363px;}
	.st12{fill:none;stroke:#323333;stroke-width:1.07;stroke-linejoin:round;stroke-miterlimit:10;}
	.st13{font-size:7.3504px;}
	.st14{font-size:8.0876px;}
	.st15{fill:none;stroke:#E71F19;stroke-width:2.13;stroke-linejoin:round;stroke-miterlimit:10;}
	.st16{fill:none;stroke:#17499D;stroke-width:2.13;stroke-linejoin:round;stroke-miterlimit:10;}
	.st17{font-size:6.4316px;}
</style>
<g id="J">
	<g>
		<g>
			<defs>
				<rect id="SVGID_1_" x="34.03" y="19.97" width="82.02" height="82.02"/>
			</defs>
			<clipPath id="SVGID_2_">
				<use xlink:href="#SVGID_1_"  style="overflow:visible;"/>
			</clipPath>
			<polyline class="st0" points="37.76,23.69 37.76,23.69 37.76,24.23 38.03,24.23 38.03,24.78 38.28,24.78 38.4,24.78 38.6,24.78 
				38.6,25.32 38.63,25.32 38.66,25.32 38.66,25.88 39.03,25.88 39.03,26.43 39.08,26.43 39.08,26.98 39.48,26.98 39.48,27.53 
				39.49,27.53 39.49,28.09 39.52,28.09 39.52,28.64 39.64,28.64 39.67,28.64 40.01,28.64 40.01,29.2 40.25,29.2 40.25,29.76 
				40.33,29.76 40.33,30.32 40.42,30.32 40.47,30.32 40.52,30.32 40.52,30.89 40.94,30.89 41.03,30.89 41.04,30.89 41.22,30.89 
				41.22,31.48 41.41,31.48 41.41,32.06 41.51,32.06 41.51,32.65 41.56,32.65 41.56,33.23 41.61,33.23 41.67,33.23 41.67,33.83 
				41.76,33.83 41.76,34.42 41.77,34.42 41.77,35.01 41.92,35.01 42.29,35.01 42.72,35.01 42.72,35.61 42.92,35.61 42.93,35.61 
				42.93,36.22 43.16,36.22 43.16,36.83 43.24,36.83 43.24,37.43 43.25,37.43 43.25,38.04 43.27,38.04 43.72,38.04 43.82,38.04 
				43.85,38.04 44.03,38.04 44.03,38.68 44.1,38.68 44.1,39.31 44.19,39.31 44.19,39.94 44.24,39.94 44.24,40.59 44.44,40.59 
				44.44,41.23 44.48,41.23 44.48,41.87 44.59,41.87 44.59,42.52 44.71,42.52 44.73,42.52 44.86,42.52 45.06,42.52 45.06,43.2 
				45.26,43.2 45.28,43.2 45.44,43.2 45.56,43.2 45.59,43.2 45.79,43.2 45.79,43.91 45.82,43.91 45.9,43.91 45.9,44.64 46.26,44.64 
				46.26,45.36 46.41,45.36 46.45,45.36 46.51,45.36 46.63,45.36 46.67,45.36 46.73,45.36 46.78,45.36 47.29,45.36 47.3,45.36 
				47.36,45.36 47.37,45.36 47.49,45.36 47.49,46.21 47.61,46.21 47.65,46.21 48.02,46.21 48.02,47.09 48.06,47.09 48.44,47.09 
				48.44,48.01 48.56,48.01 48.57,48.01 48.88,48.01 48.88,48.96 49.11,48.96 49.11,49.9 49.55,49.9 49.55,50.85 49.8,50.85 
				50.37,50.85 50.39,50.85 50.39,51.86 50.41,51.86 50.75,51.86 52.3,51.86 52.3,52.94 52.33,52.94 52.36,52.94 52.36,54.04 
				52.56,54.04 53,54.04 53,55.18 53.05,55.18 53.05,56.31 53.43,56.31 53.44,56.31 53.44,57.48 53.79,57.48 54.05,57.48 
				54.05,58.68 54.11,58.68 54.28,58.68 54.52,58.68 54.52,59.95 54.87,59.95 54.87,61.23 55.43,61.23 55.43,62.51 55.72,62.51 
				55.72,63.78 55.87,63.78 56.15,63.78 56.15,65.11 56.47,65.11 56.59,65.11 56.59,66.49 56.66,66.49 56.66,67.87 56.77,67.87 
				58.69,67.87 58.84,67.87 59.01,67.87 59.01,69.47 59.7,69.47 59.7,71.07 60.55,71.07 61.4,71.07 61.45,71.07 65.43,71.07 
				67.39,71.07 67.39,73.16 67.94,73.16 69,73.16 72.74,73.16 72.74,75.67 73.56,75.67 74.13,75.67 75.69,75.67 76.01,75.67 
				76.01,79.44 81.22,79.44 82.48,79.44 82.99,79.44 110.74,79.44 118.82,79.44 			"/>
			<polyline class="st1" points="37.76,23.69 37.76,23.69 37.81,23.69 37.81,23.89 37.91,23.89 37.94,23.89 37.96,23.89 
				37.97,23.89 38.02,23.89 38.02,24.1 38.08,24.1 38.08,24.3 38.11,24.3 38.17,24.3 38.24,24.3 38.24,24.5 38.26,24.5 38.31,24.5 
				38.31,24.71 38.4,24.71 38.46,24.71 38.49,24.71 38.64,24.71 38.66,24.71 38.84,24.71 38.84,24.92 38.91,24.92 38.98,24.92 
				39.17,24.92 39.17,25.12 39.2,25.12 39.2,25.33 39.45,25.33 39.45,25.54 39.49,25.54 39.57,25.54 39.57,25.75 39.7,25.75 
				39.71,25.75 39.79,25.75 39.79,25.96 39.81,25.96 39.96,25.96 40.11,25.96 40.11,26.17 40.15,26.17 40.15,26.39 40.17,26.39 
				40.2,26.39 40.2,26.6 40.28,26.6 40.28,26.81 40.3,26.81 40.37,26.81 40.37,27.03 40.44,27.03 40.47,27.03 40.49,27.03 
				40.49,27.24 40.58,27.24 40.58,27.46 40.71,27.46 40.82,27.46 40.82,27.68 41.12,27.68 41.31,27.68 41.31,27.89 41.32,27.89 
				41.32,28.33 41.5,28.33 41.53,28.33 41.53,28.54 41.56,28.54 41.86,28.54 41.86,28.77 41.88,28.77 41.88,28.98 41.95,28.98 
				42.01,28.98 42.01,29.2 42.14,29.2 42.14,29.42 42.18,29.42 42.18,29.64 42.24,29.64 42.24,29.86 42.26,29.86 42.26,30.08 
				42.45,30.08 42.45,30.52 42.48,30.52 42.67,30.52 42.67,30.96 42.68,30.96 42.71,30.96 42.71,31.18 42.77,31.18 42.77,31.4 
				42.89,31.4 42.93,31.4 43.09,31.4 43.19,31.4 43.38,31.4 43.38,31.63 43.73,31.63 43.73,31.85 43.76,31.85 43.81,31.85 
				43.81,32.08 43.82,32.08 43.83,32.08 43.86,32.08 43.92,32.08 43.94,32.08 43.95,32.08 43.98,32.08 44,32.08 44.01,32.08 
				44.01,32.32 44.1,32.32 44.1,32.55 44.11,32.55 44.21,32.55 44.21,32.79 44.24,32.79 44.24,33.03 44.27,33.03 44.3,33.03 
				44.41,33.03 44.51,33.03 44.54,33.03 44.54,33.27 44.57,33.27 44.58,33.27 44.59,33.27 44.59,33.52 44.61,33.52 44.61,33.76 
				44.71,33.76 44.74,33.76 44.74,34.01 44.79,34.01 44.83,34.01 44.88,34.01 44.89,34.01 44.89,34.26 44.95,34.26 45.05,34.26 
				45.11,34.26 45.11,34.51 45.14,34.51 45.28,34.51 45.35,34.51 45.38,34.51 45.52,34.51 45.61,34.51 45.64,34.51 45.65,34.51 
				45.66,34.51 45.72,34.51 45.74,34.51 45.75,34.51 45.81,34.51 45.84,34.51 45.96,34.51 45.96,34.78 46,34.78 46.02,34.78 
				46.05,34.78 46.06,34.78 46.13,34.78 46.14,34.78 46.14,35.06 46.2,35.06 46.32,35.06 46.32,35.34 46.4,35.34 46.43,35.34 
				46.43,35.62 46.44,35.62 46.44,35.9 46.47,35.9 46.5,35.9 46.5,36.18 46.52,36.18 46.54,36.18 46.57,36.18 46.6,36.18 
				46.63,36.18 46.63,36.47 46.64,36.47 46.66,36.47 46.67,36.47 46.78,36.47 46.88,36.47 46.88,36.77 46.89,36.77 46.89,37.07 
				46.91,37.07 46.91,37.37 46.93,37.37 46.93,37.67 46.95,37.67 46.96,37.67 47.02,37.67 47.27,37.67 47.29,37.67 47.3,37.67 
				47.3,37.98 47.34,37.98 47.34,38.3 47.37,38.3 47.46,38.3 47.54,38.3 47.55,38.3 47.65,38.3 47.65,38.62 47.74,38.62 
				47.83,38.62 47.84,38.62 47.86,38.62 47.9,38.62 47.9,38.94 47.95,38.94 47.95,39.27 48,39.27 48,39.6 48.05,39.6 48.15,39.6 
				48.15,39.93 48.25,39.93 48.27,39.93 48.27,40.27 48.33,40.27 48.34,40.27 48.4,40.27 48.43,40.27 48.53,40.27 48.53,40.62 
				48.59,40.62 48.68,40.62 48.86,40.62 48.86,40.97 48.88,40.97 49.06,40.97 49.09,40.97 49.32,40.97 49.45,40.97 49.45,41.34 
				49.52,41.34 49.54,41.34 49.57,41.34 49.57,41.72 49.64,41.72 49.83,41.72 49.83,42.1 49.85,42.1 49.87,42.1 49.89,42.1 
				50.02,42.1 50.06,42.1 50.11,42.1 50.21,42.1 50.25,42.1 50.25,42.49 50.36,42.49 50.46,42.49 50.46,42.89 50.5,42.89 
				50.6,42.89 50.6,43.3 50.65,43.3 50.74,43.3 50.75,43.3 50.85,43.3 50.85,44.13 50.97,44.13 50.98,44.13 50.98,44.55 
				51.06,44.55 51.09,44.55 51.1,44.55 51.23,44.55 51.23,44.99 51.34,44.99 51.34,45.42 51.35,45.42 51.47,45.42 51.56,45.42 
				51.6,45.42 51.63,45.42 51.63,45.87 51.64,45.87 51.64,46.32 51.67,46.32 51.67,46.77 52.02,46.77 52.02,47.22 52.04,47.22 
				52.18,47.22 52.18,47.68 52.2,47.68 52.27,47.68 52.3,47.68 52.3,48.14 52.75,48.14 52.75,48.61 52.9,48.61 52.96,48.61 
				53.25,48.61 53.41,48.61 53.53,48.61 53.56,48.61 53.56,49.09 54.1,49.09 54.2,49.09 54.22,49.09 54.35,49.09 54.35,49.6 
				54.36,49.6 54.36,50.11 54.54,50.11 54.67,50.11 54.7,50.11 54.76,50.11 54.81,50.11 54.81,50.64 54.93,50.64 54.98,50.64 
				55.05,50.64 55.14,50.64 55.21,50.64 55.21,51.19 55.25,51.19 55.25,51.76 55.52,51.76 55.52,52.32 55.53,52.32 55.78,52.32 
				55.81,52.32 55.81,52.89 55.97,52.89 56.04,52.89 56.25,52.89 56.25,53.48 56.29,53.48 56.29,54.07 56.35,54.07 56.54,54.07 
				56.6,54.07 56.83,54.07 57.11,54.07 57.24,54.07 57.51,54.07 57.59,54.07 57.59,54.72 57.74,54.72 57.77,54.72 57.91,54.72 
				57.91,55.39 58.22,55.39 58.53,55.39 58.53,56.07 58.65,56.07 58.68,56.07 59.3,56.07 59.38,56.07 59.57,56.07 59.57,56.8 
				59.65,56.8 59.65,57.52 59.67,57.52 59.67,58.25 59.92,58.25 59.92,58.98 60.02,58.98 60.09,58.98 60.09,59.72 60.14,59.72 
				60.14,60.46 61.14,60.46 61.14,61.2 61.47,61.2 61.47,61.94 61.61,61.94 61.61,62.68 61.92,62.68 61.92,63.43 62.36,63.43 
				62.61,63.43 62.97,63.43 62.97,64.2 63.02,64.2 63.34,64.2 63.75,64.2 63.75,65.01 63.92,65.01 63.92,65.82 64.04,65.82 
				64.04,66.63 64.51,66.63 64.51,67.44 64.76,67.44 65,67.44 65.09,67.44 66,67.44 66.48,67.44 66.61,67.44 67.97,67.44 
				68.59,67.44 69.35,67.44 69.54,67.44 69.54,68.5 69.9,68.5 70.27,68.5 70.62,68.5 70.81,68.5 71.64,68.5 71.64,69.74 
				72.26,69.74 72.38,69.74 74.52,69.74 75.62,69.74 76,69.74 76.06,69.74 76.06,71.33 76.88,71.33 76.95,71.33 76.95,73.01 
				77.17,73.01 79.03,73.01 79.16,73.01 84.09,73.01 84.09,75.11 85.43,75.11 86.07,75.11 86.89,75.11 86.89,77.69 90.9,77.69 
				91.47,77.69 92.71,77.69 95.36,77.69 107.42,77.69 110.28,77.69 110.28,84.54 118.82,84.54 			"/>
			<g class="st2">
				<text transform="matrix(1 0 0 1 36.7703 26.0776)" class="st3 st4 st5">+</text>
			</g>
			<g class="st2">
				<text transform="matrix(1 0 0 1 36.8885 26.0776)" class="st3 st4 st5">+</text>
			</g>
			<g class="st2">
				<text transform="matrix(1 0 0 1 37.1248 26.6279)" class="st3 st4 st5">+</text>
			</g>
			<g class="st2">
				<text transform="matrix(1 0 0 1 38.1317 29.9424)" class="st3 st4 st5">+</text>
			</g>
			<g class="st2">
				<text transform="matrix(1 0 0 1 38.1619 29.9424)" class="st3 st4 st5">+</text>
			</g>
			<g class="st2">
				<text transform="matrix(1 0 0 1 38.9071 31.6255)" class="st3 st4 st5">+</text>
			</g>
			<g class="st2">
				<text transform="matrix(1 0 0 1 38.9657 31.6255)" class="st3 st4 st5">+</text>
			</g>
			<g class="st2">
				<text transform="matrix(1 0 0 1 39.4315 32.1978)" class="st3 st4 st5">+</text>
			</g>
			<g class="st2">
				<text transform="matrix(1 0 0 1 39.5203 32.1978)" class="st3 st4 st5">+</text>
			</g>
			<g class="st2">
				<text transform="matrix(1 0 0 1 39.534 32.1978)" class="st3 st4 st5">+</text>
			</g>
			<g class="st2">
				<text transform="matrix(1 0 0 1 40.1073 34.5415)" class="st3 st4 st5">+</text>
			</g>
			<g class="st2">
				<text transform="matrix(1 0 0 1 40.4129 36.313)" class="st3 st4 st5">+</text>
			</g>
			<g class="st2">
				<text transform="matrix(1 0 0 1 40.7782 36.313)" class="st3 st4 st5">+</text>
			</g>
			<g class="st2">
				<text transform="matrix(1 0 0 1 41.4071 36.9185)" class="st3 st4 st5">+</text>
			</g>
			<g class="st2">
				<text transform="matrix(1 0 0 1 41.7567 39.3511)" class="st3 st4 st5">+</text>
			</g>
			<g class="st2">
				<text transform="matrix(1 0 0 1 42.2098 39.3511)" class="st3 st4 st5">+</text>
			</g>
			<g class="st2">
				<text transform="matrix(1 0 0 1 42.3143 39.3511)" class="st3 st4 st5">+</text>
			</g>
			<g class="st2">
				<text transform="matrix(1 0 0 1 42.3436 39.3511)" class="st3 st4 st5">+</text>
			</g>
			<g class="st2">
				<text transform="matrix(1 0 0 1 42.6785 41.2505)" class="st3 st4 st5">+</text>
			</g>
			<g class="st2">
				<text transform="matrix(1 0 0 1 42.9266 42.5327)" class="st3 st4 st5">+</text>
			</g>
			<g class="st2">
				<text transform="matrix(1 0 0 1 43.2039 43.8286)" class="st3 st4 st5">+</text>
			</g>
			<g class="st2">
				<text transform="matrix(1 0 0 1 43.2176 43.8286)" class="st3 st4 st5">+</text>
			</g>
			<g class="st2">
				<text transform="matrix(1 0 0 1 43.3504 43.8286)" class="st3 st4 st5">+</text>
			</g>
			<g class="st2">
				<text transform="matrix(1 0 0 1 43.7469 44.4995)" class="st3 st4 st5">+</text>
			</g>
			<g class="st2">
				<text transform="matrix(1 0 0 1 43.7752 44.4995)" class="st3 st4 st5">+</text>
			</g>
			<g class="st2">
				<text transform="matrix(1 0 0 1 43.9334 44.4995)" class="st3 st4 st5">+</text>
			</g>
			<g class="st2">
				<text transform="matrix(1 0 0 1 44.0526 44.4995)" class="st3 st4 st5">+</text>
			</g>
			<g class="st2">
				<text transform="matrix(1 0 0 1 44.0819 44.4995)" class="st3 st4 st5">+</text>
			</g>
			<g class="st2">
				<text transform="matrix(1 0 0 1 44.3143 45.2153)" class="st3 st4 st5">+</text>
			</g>
			<g class="st2">
				<text transform="matrix(1 0 0 1 44.9012 46.6655)" class="st3 st4 st5">+</text>
			</g>
			<g class="st2">
				<text transform="matrix(1 0 0 1 44.9451 46.6655)" class="st3 st4 st5">+</text>
			</g>
			<g class="st2">
				<text transform="matrix(1 0 0 1 45.0037 46.6655)" class="st3 st4 st5">+</text>
			</g>
			<g class="st2">
				<text transform="matrix(1 0 0 1 45.12 46.6655)" class="st3 st4 st5">+</text>
			</g>
			<g class="st2">
				<text transform="matrix(1 0 0 1 45.1629 46.6655)" class="st3 st4 st5">+</text>
			</g>
			<g class="st2">
				<text transform="matrix(1 0 0 1 45.2225 46.6655)" class="st3 st4 st5">+</text>
			</g>
			<g class="st2">
				<text transform="matrix(1 0 0 1 45.2664 46.6655)" class="st3 st4 st5">+</text>
			</g>
			<g class="st2">
				<text transform="matrix(1 0 0 1 45.7801 46.6655)" class="st3 st4 st5">+</text>
			</g>
			<g class="st2">
				<text transform="matrix(1 0 0 1 45.7899 46.6655)" class="st3 st4 st5">+</text>
			</g>
			<g class="st2">
				<text transform="matrix(1 0 0 1 45.8494 46.6655)" class="st3 st4 st5">+</text>
			</g>
			<g class="st2">
				<text transform="matrix(1 0 0 1 45.8631 46.6655)" class="st3 st4 st5">+</text>
			</g>
			<g class="st2">
				<text transform="matrix(1 0 0 1 46.1004 47.5191)" class="st3 st4 st5">+</text>
			</g>
			<g class="st2">
				<text transform="matrix(1 0 0 1 46.1444 47.5191)" class="st3 st4 st5">+</text>
			</g>
			<g class="st2">
				<text transform="matrix(1 0 0 1 46.5506 48.4009)" class="st3 st4 st5">+</text>
			</g>
			<g class="st2">
				<text transform="matrix(1 0 0 1 47.0496 49.312)" class="st3 st4 st5">+</text>
			</g>
			<g class="st2">
				<text transform="matrix(1 0 0 1 47.0633 49.312)" class="st3 st4 st5">+</text>
			</g>
			<g class="st2">
				<text transform="matrix(1 0 0 1 48.2928 52.1577)" class="st3 st4 st5">+</text>
			</g>
			<g class="st2">
				<text transform="matrix(1 0 0 1 48.8612 52.1577)" class="st3 st4 st5">+</text>
			</g>
			<g class="st2">
				<text transform="matrix(1 0 0 1 48.8758 53.1655)" class="st3 st4 st5">+</text>
			</g>
			<g class="st2">
				<text transform="matrix(1 0 0 1 48.9061 53.1655)" class="st3 st4 st5">+</text>
			</g>
			<g class="st2">
				<text transform="matrix(1 0 0 1 49.242 53.1655)" class="st3 st4 st5">+</text>
			</g>
			<g class="st2">
				<text transform="matrix(1 0 0 1 50.8211 54.2437)" class="st3 st4 st5">+</text>
			</g>
			<g class="st2">
				<text transform="matrix(1 0 0 1 51.0535 55.3511)" class="st3 st4 st5">+</text>
			</g>
			<g class="st2">
				<text transform="matrix(1 0 0 1 51.9168 57.6167)" class="st3 st4 st5">+</text>
			</g>
			<g class="st2">
				<text transform="matrix(1 0 0 1 52.283 58.7827)" class="st3 st4 st5">+</text>
			</g>
			<g class="st2">
				<text transform="matrix(1 0 0 1 52.6043 59.9829)" class="st3 st4 st5">+</text>
			</g>
			<g class="st2">
				<text transform="matrix(1 0 0 1 52.7655 59.9829)" class="st3 st4 st5">+</text>
			</g>
			<g class="st2">
				<text transform="matrix(1 0 0 1 54.3612 65.0874)" class="st3 st4 st5">+</text>
			</g>
			<g class="st2">
				<text transform="matrix(1 0 0 1 54.9588 66.4165)" class="st3 st4 st5">+</text>
			</g>
			<g class="st2">
				<text transform="matrix(1 0 0 1 55.2655 69.1753)" class="st3 st4 st5">+</text>
			</g>
			<g class="st2">
				<text transform="matrix(1 0 0 1 57.1795 69.1753)" class="st3 st4 st5">+</text>
			</g>
			<g class="st2">
				<text transform="matrix(1 0 0 1 57.3289 69.1753)" class="st3 st4 st5">+</text>
			</g>
			<g class="st2">
				<text transform="matrix(1 0 0 1 59.036 72.3765)" class="st3 st4 st5">+</text>
			</g>
			<g class="st2">
				<text transform="matrix(1 0 0 1 59.8866 72.3765)" class="st3 st4 st5">+</text>
			</g>
			<g class="st2">
				<text transform="matrix(1 0 0 1 59.9451 72.3765)" class="st3 st4 st5">+</text>
			</g>
			<g class="st2">
				<text transform="matrix(1 0 0 1 63.9188 72.3765)" class="st3 st4 st5">+</text>
			</g>
			<g class="st2">
				<text transform="matrix(1 0 0 1 66.4373 74.4653)" class="st3 st4 st5">+</text>
			</g>
			<g class="st2">
				<text transform="matrix(1 0 0 1 67.4891 74.4653)" class="st3 st4 st5">+</text>
			</g>
			<g class="st2">
				<text transform="matrix(1 0 0 1 72.0506 76.9751)" class="st3 st4 st5">+</text>
			</g>
			<g class="st2">
				<text transform="matrix(1 0 0 1 72.619 76.9751)" class="st3 st4 st5">+</text>
			</g>
			<g class="st2">
				<text transform="matrix(1 0 0 1 74.1844 76.9751)" class="st3 st4 st5">+</text>
			</g>
			<g class="st2">
				<text transform="matrix(1 0 0 1 79.7088 80.7398)" class="st3 st4 st5">+</text>
			</g>
			<g class="st2">
				<text transform="matrix(1 0 0 1 80.9676 80.7398)" class="st3 st4 st5">+</text>
			</g>
			<g class="st2">
				<text transform="matrix(1 0 0 1 81.4813 80.7398)" class="st3 st4 st5">+</text>
			</g>
			<g class="st2">
				<text transform="matrix(1 0 0 1 109.2293 80.7398)" class="st3 st4 st5">+</text>
			</g>
			<g class="st2">
				<text transform="matrix(1 0 0 1 36.2469 24.9966)" class="st6 st4 st5">+</text>
			</g>
			<g class="st2">
				<text transform="matrix(1 0 0 1 36.4041 25.1992)" class="st6 st4 st5">+</text>
			</g>
			<g class="st2">
				<text transform="matrix(1 0 0 1 36.4344 25.1992)" class="st6 st4 st5">+</text>
			</g>
			<g class="st2">
				<text transform="matrix(1 0 0 1 36.4491 25.1992)" class="st6 st4 st5">+</text>
			</g>
			<g class="st2">
				<text transform="matrix(1 0 0 1 36.4637 25.1992)" class="st6 st4 st5">+</text>
			</g>
			<g class="st2">
				<text transform="matrix(1 0 0 1 36.5975 25.606)" class="st6 st4 st5">+</text>
			</g>
			<g class="st2">
				<text transform="matrix(1 0 0 1 36.6561 25.606)" class="st6 st4 st5">+</text>
			</g>
			<g class="st2">
				<text transform="matrix(1 0 0 1 36.7567 25.8091)" class="st6 st4 st5">+</text>
			</g>
			<g class="st2">
				<text transform="matrix(1 0 0 1 36.8885 26.0117)" class="st6 st4 st5">+</text>
			</g>
			<g class="st2">
				<text transform="matrix(1 0 0 1 36.9471 26.0117)" class="st6 st4 st5">+</text>
			</g>
			<g class="st2">
				<text transform="matrix(1 0 0 1 36.9764 26.0117)" class="st6 st4 st5">+</text>
			</g>
			<g class="st2">
				<text transform="matrix(1 0 0 1 37.1356 26.0117)" class="st6 st4 st5">+</text>
			</g>
			<g class="st2">
				<text transform="matrix(1 0 0 1 37.1502 26.0117)" class="st6 st4 st5">+</text>
			</g>
			<g class="st2">
				<text transform="matrix(1 0 0 1 37.4012 26.2178)" class="st6 st4 st5">+</text>
			</g>
			<g class="st2">
				<text transform="matrix(1 0 0 1 37.4754 26.2178)" class="st6 st4 st5">+</text>
			</g>
			<g class="st2">
				<text transform="matrix(1 0 0 1 37.9842 26.8462)" class="st6 st4 st5">+</text>
			</g>
			<g class="st2">
				<text transform="matrix(1 0 0 1 38.1903 27.0557)" class="st6 st4 st5">+</text>
			</g>
			<g class="st2">
				<text transform="matrix(1 0 0 1 38.2059 27.0557)" class="st6 st4 st5">+</text>
			</g>
			<g class="st2">
				<text transform="matrix(1 0 0 1 38.2762 27.2671)" class="st6 st4 st5">+</text>
			</g>
			<g class="st2">
				<text transform="matrix(1 0 0 1 38.3055 27.2671)" class="st6 st4 st5">+</text>
			</g>
			<g class="st2">
				<text transform="matrix(1 0 0 1 38.4539 27.2671)" class="st6 st4 st5">+</text>
			</g>
			<g class="st2">
				<text transform="matrix(1 0 0 1 38.6561 27.6914)" class="st6 st4 st5">+</text>
			</g>
			<g class="st2">
				<text transform="matrix(1 0 0 1 38.7889 28.1192)" class="st6 st4 st5">+</text>
			</g>
			<g class="st2">
				<text transform="matrix(1 0 0 1 38.8641 28.3335)" class="st6 st4 st5">+</text>
			</g>
			<g class="st2">
				<text transform="matrix(1 0 0 1 38.9373 28.3335)" class="st6 st4 st5">+</text>
			</g>
			<g class="st2">
				<text transform="matrix(1 0 0 1 38.9657 28.3335)" class="st6 st4 st5">+</text>
			</g>
			<g class="st2">
				<text transform="matrix(1 0 0 1 39.1981 28.7651)" class="st6 st4 st5">+</text>
			</g>
			<g class="st2">
				<text transform="matrix(1 0 0 1 39.6082 28.9785)" class="st6 st4 st5">+</text>
			</g>
			<g class="st2">
				<text transform="matrix(1 0 0 1 39.9881 29.6328)" class="st6 st4 st5">+</text>
			</g>
			<g class="st2">
				<text transform="matrix(1 0 0 1 40.0477 29.8501)" class="st6 st4 st5">+</text>
			</g>
			<g class="st2">
				<text transform="matrix(1 0 0 1 40.4432 30.2857)" class="st6 st4 st5">+</text>
			</g>
			<g class="st2">
				<text transform="matrix(1 0 0 1 40.7342 31.1636)" class="st6 st4 st5">+</text>
			</g>
			<g class="st2">
				<text transform="matrix(1 0 0 1 40.9666 31.8252)" class="st6 st4 st5">+</text>
			</g>
			<g class="st2">
				<text transform="matrix(1 0 0 1 41.1727 32.2637)" class="st6 st4 st5">+</text>
			</g>
			<g class="st2">
				<text transform="matrix(1 0 0 1 41.3768 32.7075)" class="st6 st4 st5">+</text>
			</g>
			<g class="st2">
				<text transform="matrix(1 0 0 1 41.4207 32.7075)" class="st6 st4 st5">+</text>
			</g>
			<g class="st2">
				<text transform="matrix(1 0 0 1 41.5828 32.7075)" class="st6 st4 st5">+</text>
			</g>
			<g class="st2">
				<text transform="matrix(1 0 0 1 41.6825 32.7075)" class="st6 st4 st5">+</text>
			</g>
			<g class="st2">
				<text transform="matrix(1 0 0 1 41.8748 32.9321)" class="st6 st4 st5">+</text>
			</g>
			<g class="st2">
				<text transform="matrix(1 0 0 1 42.2254 33.1587)" class="st6 st4 st5">+</text>
			</g>
			<g class="st2">
				<text transform="matrix(1 0 0 1 42.2547 33.1587)" class="st6 st4 st5">+</text>
			</g>
			<g class="st2">
				<text transform="matrix(1 0 0 1 42.2996 33.3872)" class="st6 st4 st5">+</text>
			</g>
			<g class="st2">
				<text transform="matrix(1 0 0 1 42.3143 33.3872)" class="st6 st4 st5">+</text>
			</g>
			<g class="st2">
				<text transform="matrix(1 0 0 1 42.328 33.3872)" class="st6 st4 st5">+</text>
			</g>
			<g class="st2">
				<text transform="matrix(1 0 0 1 42.3582 33.3872)" class="st6 st4 st5">+</text>
			</g>
			<g class="st2">
				<text transform="matrix(1 0 0 1 42.4129 33.3872)" class="st6 st4 st5">+</text>
			</g>
			<g class="st2">
				<text transform="matrix(1 0 0 1 42.4276 33.3872)" class="st6 st4 st5">+</text>
			</g>
			<g class="st2">
				<text transform="matrix(1 0 0 1 42.4432 33.3872)" class="st6 st4 st5">+</text>
			</g>
			<g class="st2">
				<text transform="matrix(1 0 0 1 42.4725 33.3872)" class="st6 st4 st5">+</text>
			</g>
			<g class="st2">
				<text transform="matrix(1 0 0 1 42.4871 33.3872)" class="st6 st4 st5">+</text>
			</g>
			<g class="st2">
				<text transform="matrix(1 0 0 1 42.6053 33.855)" class="st6 st4 st5">+</text>
			</g>
			<g class="st2">
				<text transform="matrix(1 0 0 1 42.7088 34.0952)" class="st6 st4 st5">+</text>
			</g>
			<g class="st2">
				<text transform="matrix(1 0 0 1 42.7684 34.3345)" class="st6 st4 st5">+</text>
			</g>
			<g class="st2">
				<text transform="matrix(1 0 0 1 42.7938 34.3345)" class="st6 st4 st5">+</text>
			</g>
			<g class="st2">
				<text transform="matrix(1 0 0 1 42.8963 34.3345)" class="st6 st4 st5">+</text>
			</g>
			<g class="st2">
				<text transform="matrix(1 0 0 1 42.9998 34.3345)" class="st6 st4 st5">+</text>
			</g>
			<g class="st2">
				<text transform="matrix(1 0 0 1 43.0594 34.5786)" class="st6 st4 st5">+</text>
			</g>
			<g class="st2">
				<text transform="matrix(1 0 0 1 43.0741 34.5786)" class="st6 st4 st5">+</text>
			</g>
			<g class="st2">
				<text transform="matrix(1 0 0 1 43.2039 35.0659)" class="st6 st4 st5">+</text>
			</g>
			<g class="st2">
				<text transform="matrix(1 0 0 1 43.2332 35.313)" class="st6 st4 st5">+</text>
			</g>
			<g class="st2">
				<text transform="matrix(1 0 0 1 43.2772 35.313)" class="st6 st4 st5">+</text>
			</g>
			<g class="st2">
				<text transform="matrix(1 0 0 1 43.3211 35.313)" class="st6 st4 st5">+</text>
			</g>
			<g class="st2">
				<text transform="matrix(1 0 0 1 43.366 35.313)" class="st6 st4 st5">+</text>
			</g>
			<g class="st2">
				<text transform="matrix(1 0 0 1 43.4393 35.564)" class="st6 st4 st5">+</text>
			</g>
			<g class="st2">
				<text transform="matrix(1 0 0 1 43.5389 35.564)" class="st6 st4 st5">+</text>
			</g>
			<g class="st2">
				<text transform="matrix(1 0 0 1 43.6278 35.8189)" class="st6 st4 st5">+</text>
			</g>
			<g class="st2">
				<text transform="matrix(1 0 0 1 43.7752 35.8189)" class="st6 st4 st5">+</text>
			</g>
			<g class="st2">
				<text transform="matrix(1 0 0 1 43.8494 35.8189)" class="st6 st4 st5">+</text>
			</g>
			<g class="st2">
				<text transform="matrix(1 0 0 1 43.8787 35.8189)" class="st6 st4 st5">+</text>
			</g>
			<g class="st2">
				<text transform="matrix(1 0 0 1 44.0076 35.8189)" class="st6 st4 st5">+</text>
			</g>
			<g class="st2">
				<text transform="matrix(1 0 0 1 44.0965 35.8189)" class="st6 st4 st5">+</text>
			</g>
			<g class="st2">
				<text transform="matrix(1 0 0 1 44.1258 35.8189)" class="st6 st4 st5">+</text>
			</g>
			<g class="st2">
				<text transform="matrix(1 0 0 1 44.1414 35.8189)" class="st6 st4 st5">+</text>
			</g>
			<g class="st2">
				<text transform="matrix(1 0 0 1 44.1561 35.8189)" class="st6 st4 st5">+</text>
			</g>
			<g class="st2">
				<text transform="matrix(1 0 0 1 44.2147 35.8189)" class="st6 st4 st5">+</text>
			</g>
			<g class="st2">
				<text transform="matrix(1 0 0 1 44.2293 35.8189)" class="st6 st4 st5">+</text>
			</g>
			<g class="st2">
				<text transform="matrix(1 0 0 1 44.244 35.8189)" class="st6 st4 st5">+</text>
			</g>
			<g class="st2">
				<text transform="matrix(1 0 0 1 44.2996 35.8189)" class="st6 st4 st5">+</text>
			</g>
			<g class="st2">
				<text transform="matrix(1 0 0 1 44.3299 35.8189)" class="st6 st4 st5">+</text>
			</g>
			<g class="st2">
				<text transform="matrix(1 0 0 1 44.491 36.0845)" class="st6 st4 st5">+</text>
			</g>
			<g class="st2">
				<text transform="matrix(1 0 0 1 44.5067 36.0845)" class="st6 st4 st5">+</text>
			</g>
			<g class="st2">
				<text transform="matrix(1 0 0 1 44.536 36.0845)" class="st6 st4 st5">+</text>
			</g>
			<g class="st2">
				<text transform="matrix(1 0 0 1 44.5506 36.0845)" class="st6 st4 st5">+</text>
			</g>
			<g class="st2">
				<text transform="matrix(1 0 0 1 44.6239 36.0845)" class="st6 st4 st5">+</text>
			</g>
			<g class="st2">
				<text transform="matrix(1 0 0 1 44.6932 36.3618)" class="st6 st4 st5">+</text>
			</g>
			<g class="st2">
				<text transform="matrix(1 0 0 1 44.8856 36.6421)" class="st6 st4 st5">+</text>
			</g>
			<g class="st2">
				<text transform="matrix(1 0 0 1 44.9608 37.2026)" class="st6 st4 st5">+</text>
			</g>
			<g class="st2">
				<text transform="matrix(1 0 0 1 45.0194 37.4868)" class="st6 st4 st5">+</text>
			</g>
			<g class="st2">
				<text transform="matrix(1 0 0 1 45.0301 37.4868)" class="st6 st4 st5">+</text>
			</g>
			<g class="st2">
				<text transform="matrix(1 0 0 1 45.0604 37.4868)" class="st6 st4 st5">+</text>
			</g>
			<g class="st2">
				<text transform="matrix(1 0 0 1 45.0897 37.4868)" class="st6 st4 st5">+</text>
			</g>
			<g class="st2">
				<text transform="matrix(1 0 0 1 45.1336 37.7788)" class="st6 st4 st5">+</text>
			</g>
			<g class="st2">
				<text transform="matrix(1 0 0 1 45.1483 37.7788)" class="st6 st4 st5">+</text>
			</g>
			<g class="st2">
				<text transform="matrix(1 0 0 1 45.1629 37.7788)" class="st6 st4 st5">+</text>
			</g>
			<g class="st2">
				<text transform="matrix(1 0 0 1 45.2664 37.7788)" class="st6 st4 st5">+</text>
			</g>
			<g class="st2">
				<text transform="matrix(1 0 0 1 45.37 38.0737)" class="st6 st4 st5">+</text>
			</g>
			<g class="st2">
				<text transform="matrix(1 0 0 1 45.3993 38.6753)" class="st6 st4 st5">+</text>
			</g>
			<g class="st2">
				<text transform="matrix(1 0 0 1 45.4403 38.978)" class="st6 st4 st5">+</text>
			</g>
			<g class="st2">
				<text transform="matrix(1 0 0 1 45.4539 38.978)" class="st6 st4 st5">+</text>
			</g>
			<g class="st2">
				<text transform="matrix(1 0 0 1 45.5135 38.978)" class="st6 st4 st5">+</text>
			</g>
			<g class="st2">
				<text transform="matrix(1 0 0 1 45.7645 38.978)" class="st6 st4 st5">+</text>
			</g>
			<g class="st2">
				<text transform="matrix(1 0 0 1 45.7801 38.978)" class="st6 st4 st5">+</text>
			</g>
			<g class="st2">
				<text transform="matrix(1 0 0 1 45.8631 39.6021)" class="st6 st4 st5">+</text>
			</g>
			<g class="st2">
				<text transform="matrix(1 0 0 1 45.953 39.6021)" class="st6 st4 st5">+</text>
			</g>
			<g class="st2">
				<text transform="matrix(1 0 0 1 46.0272 39.6021)" class="st6 st4 st5">+</text>
			</g>
			<g class="st2">
				<text transform="matrix(1 0 0 1 46.0409 39.6021)" class="st6 st4 st5">+</text>
			</g>
			<g class="st2">
				<text transform="matrix(1 0 0 1 46.2303 39.9233)" class="st6 st4 st5">+</text>
			</g>
			<g class="st2">
				<text transform="matrix(1 0 0 1 46.3182 39.9233)" class="st6 st4 st5">+</text>
			</g>
			<g class="st2">
				<text transform="matrix(1 0 0 1 46.3328 39.9233)" class="st6 st4 st5">+</text>
			</g>
			<g class="st2">
				<text transform="matrix(1 0 0 1 46.3475 39.9233)" class="st6 st4 st5">+</text>
			</g>
			<g class="st2">
				<text transform="matrix(1 0 0 1 46.4959 40.9087)" class="st6 st4 st5">+</text>
			</g>
			<g class="st2">
				<text transform="matrix(1 0 0 1 46.536 40.9087)" class="st6 st4 st5">+</text>
			</g>
			<g class="st2">
				<text transform="matrix(1 0 0 1 46.743 41.2407)" class="st6 st4 st5">+</text>
			</g>
			<g class="st2">
				<text transform="matrix(1 0 0 1 46.7576 41.5767)" class="st6 st4 st5">+</text>
			</g>
			<g class="st2">
				<text transform="matrix(1 0 0 1 46.8172 41.5767)" class="st6 st4 st5">+</text>
			</g>
			<g class="st2">
				<text transform="matrix(1 0 0 1 46.8309 41.5767)" class="st6 st4 st5">+</text>
			</g>
			<g class="st2">
				<text transform="matrix(1 0 0 1 46.8905 41.5767)" class="st6 st4 st5">+</text>
			</g>
			<g class="st2">
				<text transform="matrix(1 0 0 1 46.9168 41.5767)" class="st6 st4 st5">+</text>
			</g>
			<g class="st2">
				<text transform="matrix(1 0 0 1 47.0789 41.9233)" class="st6 st4 st5">+</text>
			</g>
			<g class="st2">
				<text transform="matrix(1 0 0 1 47.1668 41.9233)" class="st6 st4 st5">+</text>
			</g>
			<g class="st2">
				<text transform="matrix(1 0 0 1 47.37 42.2739)" class="st6 st4 st5">+</text>
			</g>
			<g class="st2">
				<text transform="matrix(1 0 0 1 47.5467 42.2739)" class="st6 st4 st5">+</text>
			</g>
			<g class="st2">
				<text transform="matrix(1 0 0 1 47.577 42.2739)" class="st6 st4 st5">+</text>
			</g>
			<g class="st2">
				<text transform="matrix(1 0 0 1 47.8094 42.2739)" class="st6 st4 st5">+</text>
			</g>
			<g class="st2">
				<text transform="matrix(1 0 0 1 47.9422 42.6431)" class="st6 st4 st5">+</text>
			</g>
			<g class="st2">
				<text transform="matrix(1 0 0 1 48.0155 42.6431)" class="st6 st4 st5">+</text>
			</g>
			<g class="st2">
				<text transform="matrix(1 0 0 1 48.0311 42.6431)" class="st6 st4 st5">+</text>
			</g>
			<g class="st2">
				<text transform="matrix(1 0 0 1 48.1297 43.02)" class="st6 st4 st5">+</text>
			</g>
			<g class="st2">
				<text transform="matrix(1 0 0 1 48.3368 43.3989)" class="st6 st4 st5">+</text>
			</g>
			<g class="st2">
				<text transform="matrix(1 0 0 1 48.367 43.3989)" class="st6 st4 st5">+</text>
			</g>
			<g class="st2">
				<text transform="matrix(1 0 0 1 48.3817 43.3989)" class="st6 st4 st5">+</text>
			</g>
			<g class="st2">
				<text transform="matrix(1 0 0 1 48.5106 43.3989)" class="st6 st4 st5">+</text>
			</g>
			<g class="st2">
				<text transform="matrix(1 0 0 1 48.5555 43.3989)" class="st6 st4 st5">+</text>
			</g>
			<g class="st2">
				<text transform="matrix(1 0 0 1 48.5985 43.3989)" class="st6 st4 st5">+</text>
			</g>
			<g class="st2">
				<text transform="matrix(1 0 0 1 48.703 43.3989)" class="st6 st4 st5">+</text>
			</g>
			<g class="st2">
				<text transform="matrix(1 0 0 1 48.8465 43.7983)" class="st6 st4 st5">+</text>
			</g>
			<g class="st2">
				<text transform="matrix(1 0 0 1 48.993 44.1997)" class="st6 st4 st5">+</text>
			</g>
			<g class="st2">
				<text transform="matrix(1 0 0 1 49.1414 44.603)" class="st6 st4 st5">+</text>
			</g>
			<g class="st2">
				<text transform="matrix(1 0 0 1 49.2264 44.603)" class="st6 st4 st5">+</text>
			</g>
			<g class="st2">
				<text transform="matrix(1 0 0 1 49.242 44.603)" class="st6 st4 st5">+</text>
			</g>
			<g class="st2">
				<text transform="matrix(1 0 0 1 49.3446 45.437)" class="st6 st4 st5">+</text>
			</g>
			<g class="st2">
				<text transform="matrix(1 0 0 1 49.4627 45.437)" class="st6 st4 st5">+</text>
			</g>
			<g class="st2">
				<text transform="matrix(1 0 0 1 49.5477 45.8579)" class="st6 st4 st5">+</text>
			</g>
			<g class="st2">
				<text transform="matrix(1 0 0 1 49.576 45.8579)" class="st6 st4 st5">+</text>
			</g>
			<g class="st2">
				<text transform="matrix(1 0 0 1 49.5926 45.8579)" class="st6 st4 st5">+</text>
			</g>
			<g class="st2">
				<text transform="matrix(1 0 0 1 49.8436 46.7251)" class="st6 st4 st5">+</text>
			</g>
			<g class="st2">
				<text transform="matrix(1 0 0 1 49.9569 46.7251)" class="st6 st4 st5">+</text>
			</g>
			<g class="st2">
				<text transform="matrix(1 0 0 1 50.0457 46.7251)" class="st6 st4 st5">+</text>
			</g>
			<g class="st2">
				<text transform="matrix(1 0 0 1 50.0897 46.7251)" class="st6 st4 st5">+</text>
			</g>
			<g class="st2">
				<text transform="matrix(1 0 0 1 50.12 47.1714)" class="st6 st4 st5">+</text>
			</g>
			<g class="st2">
				<text transform="matrix(1 0 0 1 50.5301 48.5259)" class="st6 st4 st5">+</text>
			</g>
			<g class="st2">
				<text transform="matrix(1 0 0 1 50.6893 48.9839)" class="st6 st4 st5">+</text>
			</g>
			<g class="st2">
				<text transform="matrix(1 0 0 1 50.7625 48.9839)" class="st6 st4 st5">+</text>
			</g>
			<g class="st2">
				<text transform="matrix(1 0 0 1 51.3934 49.9097)" class="st6 st4 st5">+</text>
			</g>
			<g class="st2">
				<text transform="matrix(1 0 0 1 51.4491 49.9097)" class="st6 st4 st5">+</text>
			</g>
			<g class="st2">
				<text transform="matrix(1 0 0 1 51.744 49.9097)" class="st6 st4 st5">+</text>
			</g>
			<g class="st2">
				<text transform="matrix(1 0 0 1 51.9022 49.9097)" class="st6 st4 st5">+</text>
			</g>
			<g class="st2">
				<text transform="matrix(1 0 0 1 52.0203 49.9097)" class="st6 st4 st5">+</text>
			</g>
			<g class="st2">
				<text transform="matrix(1 0 0 1 52.5887 50.398)" class="st6 st4 st5">+</text>
			</g>
			<g class="st2">
				<text transform="matrix(1 0 0 1 52.6922 50.398)" class="st6 st4 st5">+</text>
			</g>
			<g class="st2">
				<text transform="matrix(1 0 0 1 52.7069 50.398)" class="st6 st4 st5">+</text>
			</g>
			<g class="st2">
				<text transform="matrix(1 0 0 1 53.0282 51.4116)" class="st6 st4 st5">+</text>
			</g>
			<g class="st2">
				<text transform="matrix(1 0 0 1 53.161 51.4116)" class="st6 st4 st5">+</text>
			</g>
			<g class="st2">
				<text transform="matrix(1 0 0 1 53.1903 51.4116)" class="st6 st4 st5">+</text>
			</g>
			<g class="st2">
				<text transform="matrix(1 0 0 1 53.2498 51.4116)" class="st6 st4 st5">+</text>
			</g>
			<g class="st2">
				<text transform="matrix(1 0 0 1 53.4237 51.9399)" class="st6 st4 st5">+</text>
			</g>
			<g class="st2">
				<text transform="matrix(1 0 0 1 53.4666 51.9399)" class="st6 st4 st5">+</text>
			</g>
			<g class="st2">
				<text transform="matrix(1 0 0 1 53.5409 51.9399)" class="st6 st4 st5">+</text>
			</g>
			<g class="st2">
				<text transform="matrix(1 0 0 1 53.6297 51.9399)" class="st6 st4 st5">+</text>
			</g>
			<g class="st2">
				<text transform="matrix(1 0 0 1 54.0243 53.6226)" class="st6 st4 st5">+</text>
			</g>
			<g class="st2">
				<text transform="matrix(1 0 0 1 54.2723 53.6226)" class="st6 st4 st5">+</text>
			</g>
			<g class="st2">
				<text transform="matrix(1 0 0 1 54.4598 54.1948)" class="st6 st4 st5">+</text>
			</g>
			<g class="st2">
				<text transform="matrix(1 0 0 1 54.534 54.1948)" class="st6 st4 st5">+</text>
			</g>
			<g class="st2">
				<text transform="matrix(1 0 0 1 54.8397 55.3726)" class="st6 st4 st5">+</text>
			</g>
			<g class="st2">
				<text transform="matrix(1 0 0 1 55.0321 55.3726)" class="st6 st4 st5">+</text>
			</g>
			<g class="st2">
				<text transform="matrix(1 0 0 1 55.0916 55.3726)" class="st6 st4 st5">+</text>
			</g>
			<g class="st2">
				<text transform="matrix(1 0 0 1 55.3231 55.3726)" class="st6 st4 st5">+</text>
			</g>
			<g class="st2">
				<text transform="matrix(1 0 0 1 55.6004 55.3726)" class="st6 st4 st5">+</text>
			</g>
			<g class="st2">
				<text transform="matrix(1 0 0 1 55.7332 55.3726)" class="st6 st4 st5">+</text>
			</g>
			<g class="st2">
				<text transform="matrix(1 0 0 1 55.9959 55.3726)" class="st6 st4 st5">+</text>
			</g>
			<g class="st2">
				<text transform="matrix(1 0 0 1 56.2323 56.022)" class="st6 st4 st5">+</text>
			</g>
			<g class="st2">
				<text transform="matrix(1 0 0 1 56.2616 56.022)" class="st6 st4 st5">+</text>
			</g>
			<g class="st2">
				<text transform="matrix(1 0 0 1 56.7118 56.6939)" class="st6 st4 st5">+</text>
			</g>
			<g class="st2">
				<text transform="matrix(1 0 0 1 57.1366 57.3726)" class="st6 st4 st5">+</text>
			</g>
			<g class="st2">
				<text transform="matrix(1 0 0 1 57.1659 57.3726)" class="st6 st4 st5">+</text>
			</g>
			<g class="st2">
				<text transform="matrix(1 0 0 1 57.7967 57.3726)" class="st6 st4 st5">+</text>
			</g>
			<g class="st2">
				<text transform="matrix(1 0 0 1 57.866 57.3726)" class="st6 st4 st5">+</text>
			</g>
			<g class="st2">
				<text transform="matrix(1 0 0 1 58.5125 60.2847)" class="st6 st4 st5">+</text>
			</g>
			<g class="st2">
				<text transform="matrix(1 0 0 1 60.8494 64.729)" class="st6 st4 st5">+</text>
			</g>
			<g class="st2">
				<text transform="matrix(1 0 0 1 61.1004 64.729)" class="st6 st4 st5">+</text>
			</g>
			<g class="st2">
				<text transform="matrix(1 0 0 1 61.5096 65.5044)" class="st6 st4 st5">+</text>
			</g>
			<g class="st2">
				<text transform="matrix(1 0 0 1 61.8309 65.5044)" class="st6 st4 st5">+</text>
			</g>
			<g class="st2">
				<text transform="matrix(1 0 0 1 63.2489 68.7485)" class="st6 st4 st5">+</text>
			</g>
			<g class="st2">
				<text transform="matrix(1 0 0 1 63.495 68.7485)" class="st6 st4 st5">+</text>
			</g>
			<g class="st2">
				<text transform="matrix(1 0 0 1 63.5848 68.7485)" class="st6 st4 st5">+</text>
			</g>
			<g class="st2">
				<text transform="matrix(1 0 0 1 64.492 68.7485)" class="st6 st4 st5">+</text>
			</g>
			<g class="st2">
				<text transform="matrix(1 0 0 1 64.9725 68.7485)" class="st6 st4 st5">+</text>
			</g>
			<g class="st2">
				<text transform="matrix(1 0 0 1 65.1053 68.7485)" class="st6 st4 st5">+</text>
			</g>
			<g class="st2">
				<text transform="matrix(1 0 0 1 66.4666 68.7485)" class="st6 st4 st5">+</text>
			</g>
			<g class="st2">
				<text transform="matrix(1 0 0 1 67.0789 68.7485)" class="st6 st4 st5">+</text>
			</g>
			<g class="st2">
				<text transform="matrix(1 0 0 1 67.8397 68.7485)" class="st6 st4 st5">+</text>
			</g>
			<g class="st2">
				<text transform="matrix(1 0 0 1 68.3934 69.811)" class="st6 st4 st5">+</text>
			</g>
			<g class="st2">
				<text transform="matrix(1 0 0 1 68.7586 69.811)" class="st6 st4 st5">+</text>
			</g>
			<g class="st2">
				<text transform="matrix(1 0 0 1 69.1092 69.811)" class="st6 st4 st5">+</text>
			</g>
			<g class="st2">
				<text transform="matrix(1 0 0 1 69.3006 69.811)" class="st6 st4 st5">+</text>
			</g>
			<g class="st2">
				<text transform="matrix(1 0 0 1 70.7479 71.0503)" class="st6 st4 st5">+</text>
			</g>
			<g class="st2">
				<text transform="matrix(1 0 0 1 70.8661 71.0503)" class="st6 st4 st5">+</text>
			</g>
			<g class="st2">
				<text transform="matrix(1 0 0 1 73.0145 71.0503)" class="st6 st4 st5">+</text>
			</g>
			<g class="st2">
				<text transform="matrix(1 0 0 1 74.1102 71.0503)" class="st6 st4 st5">+</text>
			</g>
			<g class="st2">
				<text transform="matrix(1 0 0 1 74.4911 71.0503)" class="st6 st4 st5">+</text>
			</g>
			<g class="st2">
				<text transform="matrix(1 0 0 1 75.369 72.6343)" class="st6 st4 st5">+</text>
			</g>
			<g class="st2">
				<text transform="matrix(1 0 0 1 75.661 74.3169)" class="st6 st4 st5">+</text>
			</g>
			<g class="st2">
				<text transform="matrix(1 0 0 1 77.5174 74.3169)" class="st6 st4 st5">+</text>
			</g>
			<g class="st2">
				<text transform="matrix(1 0 0 1 77.6493 74.3169)" class="st6 st4 st5">+</text>
			</g>
			<g class="st2">
				<text transform="matrix(1 0 0 1 83.9207 76.4214)" class="st6 st4 st5">+</text>
			</g>
			<g class="st2">
				<text transform="matrix(1 0 0 1 84.5633 76.4214)" class="st6 st4 st5">+</text>
			</g>
			<g class="st2">
				<text transform="matrix(1 0 0 1 89.3905 78.9898)" class="st6 st4 st5">+</text>
			</g>
			<g class="st2">
				<text transform="matrix(1 0 0 1 89.9588 78.9898)" class="st6 st4 st5">+</text>
			</g>
			<g class="st2">
				<text transform="matrix(1 0 0 1 91.203 78.9898)" class="st6 st4 st5">+</text>
			</g>
			<g class="st2">
				<text transform="matrix(1 0 0 1 93.8485 78.9898)" class="st6 st4 st5">+</text>
			</g>
			<g class="st2">
				<text transform="matrix(1 0 0 1 105.911 78.9898)" class="st6 st4 st5">+</text>
			</g>
			<g class="st2">
				<text transform="matrix(1 0 0 1 39.8739 99.4732)"><tspan x="0" y="0" class="st7 st4 st8">p</tspan><tspan x="4.15" y="0" class="st7 st4 st8"> </tspan><tspan x="6.45" y="0" class="st7 st4 st8">=</tspan><tspan x="10.66" y="0" class="st7 st4 st8"> 0.016</tspan></text>
			</g>
			<rect x="34.03" y="19.97" class="st9" width="82.02" height="82.02"/>
		</g>
		<text transform="matrix(1 0 0 1 21.4315 100.2388)" class="st10 st4 st11">0.00</text>
		<text transform="matrix(1 0 0 1 21.4315 81.5962)" class="st10 st4 st11">0.25</text>
		<text transform="matrix(1 0 0 1 21.4315 62.9585)" class="st10 st4 st11">0.50</text>
		<text transform="matrix(1 0 0 1 21.4315 44.3149)" class="st10 st4 st11">0.75</text>
		<text transform="matrix(1 0 0 1 21.4315 25.6758)" class="st10 st4 st11">1.00</text>
		<line class="st12" x1="33.02" y1="98.26" x2="34.03" y2="98.26"/>
		<line class="st12" x1="33.02" y1="79.61" x2="34.03" y2="79.61"/>
		<line class="st12" x1="33.02" y1="60.97" x2="34.03" y2="60.97"/>
		<line class="st12" x1="33.02" y1="42.33" x2="34.03" y2="42.33"/>
		<line class="st12" x1="33.02" y1="23.69" x2="34.03" y2="23.69"/>
		<line class="st12" x1="37.76" y1="103" x2="37.76" y2="101.98"/>
		<line class="st12" x1="52.37" y1="103" x2="52.37" y2="101.98"/>
		<line class="st12" x1="66.99" y1="103" x2="66.99" y2="101.98"/>
		<line class="st12" x1="81.61" y1="103" x2="81.61" y2="101.98"/>
		<line class="st12" x1="96.23" y1="103" x2="96.23" y2="101.98"/>
		<line class="st12" x1="110.85" y1="103" x2="110.85" y2="101.98"/>
		<text transform="matrix(1 0 0 1 36.2166 107.7681)" class="st10 st4 st11">0</text>
		<text transform="matrix(1 0 0 1 46.2176 107.7681)" class="st10 st4 st11">1000</text>
		<text transform="matrix(1 0 0 1 60.8387 107.7681)" class="st10 st4 st11">2000</text>
		<text transform="matrix(1 0 0 1 75.4578 107.7681)" class="st10 st4 st11">3000</text>
		<text transform="matrix(1 0 0 1 90.077 107.7681)" class="st10 st4 st11">4000</text>
		<text transform="matrix(1 0 0 1 104.6961 107.7681)" class="st10 st4 st11">5000</text>
		<text transform="matrix(1 0 0 1 25.6717 115.1704)" class="st7 st4 st13">Time since diagnosis (days)</text>
		<text transform="matrix(0 -1 1 0 19.5868 91.2036)" class="st7 st4 st13">Survival probability</text>
		<text transform="matrix(1.0372 0 0 1 44.3934 16.7808)" class="st7 st4 st14">Fib-high (LUAD)</text>
		<g id="legend">
			<line class="st15" x1="52.66" y1="25.05" x2="59.89" y2="25.05"/>
			<line class="st16" x1="52.66" y1="33.76" x2="59.89" y2="33.76"/>
			<text transform="matrix(1.0372 0 0 1 61.4119 27.7588)" class="st7 st4 st17">Fib-high (n = 138)</text>
			<text transform="matrix(1.0372 0 0 1 61.4119 36.4692)" class="st7 st4 st17">Others (n = 375)</text>
		</g>
	</g>
</g>
</svg>
